[
    {
        "media_type": "video",
        "stream_index": 0,
        "key_frame": 1,
        "pkt_pts": 0,
        "pkt_pts_time": "0.000000",
        "pkt_dts": 0,
        "pkt_dts_time": "0.000000",
        "best_effort_timestamp": 0,
        "best_effort_timestamp_time": "0.000000",
        "pkt_duration": 512,
        "pkt_duration_time": "0.033333",
        "pkt_pos": "20106",
        "pkt_size": "72721",
        "width": 726,
        "height": 384,
        "pix_fmt": "yuv420p",
        "sample_aspect_ratio": "1:1",
        "pict_type": "I",
        "coded_picture_number": 0,
        "display_picture_number": 0,
        "interlaced_frame": 0,
        "top_field_first": 0,
        "repeat_pict": 0,
        "chroma_location": "left",
        "side_data_list": [
            {
                "side_data_type": "H.26[45] User Data Unregistered SEI message"
            }
        ]
    },
    {
        "media_type": "video",
        "stream_index": 0,
        "key_frame": 1,
        "pkt_pts": 44544,
        "pkt_pts_time": "2.900000",
        "pkt_dts": 44544,
        "pkt_dts_time": "2.900000",
        "best_effort_timestamp": 44544,
        "best_effort_timestamp_time": "2.900000",
        "pkt_duration": 512,
        "pkt_duration_time": "0.033333",
        "pkt_pos": "654392",
        "pkt_size": "72392",
        "width": 726,
        "height": 384,
        "pix_fmt": "yuv420p",
        "sample_aspect_ratio": "1:1",
        "pict_type": "I",
        "coded_picture_number": 87,
        "display_picture_number": 0,
        "interlaced_frame": 0,
        "top_field_first": 0,
        "repeat_pict": 0,
        "chroma_location": "left",
        "side_data_list": [
            {
                "side_data_type": "H.26[45] User Data Unregistered SEI message"
            }
        ]
    },
    {
        "media_type": "video",
        "stream_index": 0,
        "key_frame": 1,
        "pkt_pts": 105984,
        "pkt_pts_time": "6.900000",
        "pkt_dts": 105984,
        "pkt_dts_time": "6.900000",
        "best_effort_timestamp": 105984,
        "best_effort_timestamp_time": "6.900000",
        "pkt_duration": 512,
        "pkt_duration_time": "0.033333",
        "pkt_pos": "1397431",
        "pkt_size": "86106",
        "width": 726,
        "height": 384,
        "pix_fmt": "yuv420p",
        "sample_aspect_ratio": "1:1",
        "pict_type": "I",
        "coded_picture_number": 207,
        "display_picture_number": 0,
        "interlaced_frame": 0,
        "top_field_first": 0,
        "repeat_pict": 0,
        "chroma_location": "left"
    },
    {
        "media_type": "video",
        "stream_index": 0,
        "key_frame": 1,
        "pkt_pts": 124938,
        "pkt_pts_time": "8.133984",
        "pkt_dts": 124938,
        "pkt_dts_time": "8.133984",
        "best_effort_timestamp": 124938,
        "best_effort_timestamp_time": "8.133984",
        "pkt_duration": 512,
        "pkt_duration_time": "0.033333",
        "pkt_pos": "1635536",
        "pkt_size": "72633",
        "width": 726,
        "height": 384,
        "pix_fmt": "yuv420p",
        "sample_aspect_ratio": "1:1",
        "pict_type": "I",
        "coded_picture_number": 244,
        "display_picture_number": 0,
        "interlaced_frame": 0,
        "top_field_first": 0,
        "repeat_pict": 0,
        "chroma_location": "left",
        "side_data_list": [
            {
                "side_data_type": "H.26[45] User Data Unregistered SEI message"
            }
        ]
    },
    {
        "media_type": "video",
        "stream_index": 0,
        "key_frame": 1,
        "pkt_pts": 163860,
        "pkt_pts_time": "10.667969",
        "pkt_dts": 163860,
        "pkt_dts_time": "10.667969",
        "best_effort_timestamp": 163860,
        "best_effort_timestamp_time": "10.667969",
        "pkt_duration": 512,
        "pkt_duration_time": "0.033333",
        "pkt_pos": "2028663",
        "pkt_size": "72384",
        "width": 726,
        "height": 384,
        "pix_fmt": "yuv420p",
        "sample_aspect_ratio": "1:1",
        "pict_type": "I",
        "coded_picture_number": 320,
        "display_picture_number": 0,
        "interlaced_frame": 0,
        "top_field_first": 0,
        "repeat_pict": 0,
        "chroma_location": "left",
        "side_data_list": [
            {
                "side_data_type": "H.26[45] User Data Unregistered SEI message"
            }
        ]
    },
    {
        "media_type": "video",
        "stream_index": 0,
        "key_frame": 1,
        "pkt_pts": 225300,
        "pkt_pts_time": "14.667969",
        "pkt_dts": 225300,
        "pkt_dts_time": "14.667969",
        "best_effort_timestamp": 225300,
        "best_effort_timestamp_time": "14.667969",
        "pkt_duration": 512,
        "pkt_duration_time": "0.033333",
        "pkt_pos": "2658806",
        "pkt_size": "80821",
        "width": 726,
        "height": 384,
        "pix_fmt": "yuv420p",
        "sample_aspect_ratio": "1:1",
        "pict_type": "I",
        "coded_picture_number": 440,
        "display_picture_number": 0,
        "interlaced_frame": 0,
        "top_field_first": 0,
        "repeat_pict": 0,
        "chroma_location": "left"
    },
    {
        "media_type": "video",
        "stream_index": 0,
        "key_frame": 1,
        "pkt_pts": 264223,
        "pkt_pts_time": "17.202018",
        "pkt_dts": 264223,
        "pkt_dts_time": "17.202018",
        "best_effort_timestamp": 264223,
        "best_effort_timestamp_time": "17.202018",
        "pkt_duration": 512,
        "pkt_duration_time": "0.033333",
        "pkt_pos": "3090393",
        "pkt_size": "72598",
        "width": 726,
        "height": 384,
        "pix_fmt": "yuv420p",
        "sample_aspect_ratio": "1:1",
        "pict_type": "I",
        "coded_picture_number": 516,
        "display_picture_number": 0,
        "interlaced_frame": 0,
        "top_field_first": 0,
        "repeat_pict": 0,
        "chroma_location": "left",
        "side_data_list": [
            {
                "side_data_type": "H.26[45] User Data Unregistered SEI message"
            }
        ]
    },
    {
        "media_type": "video",
        "stream_index": 0,
        "key_frame": 1,
        "pkt_pts": 300575,
        "pkt_pts_time": "19.568685",
        "pkt_dts": 300575,
        "pkt_dts_time": "19.568685",
        "best_effort_timestamp": 300575,
        "best_effort_timestamp_time": "19.568685",
        "pkt_duration": 512,
        "pkt_duration_time": "0.033333",
        "pkt_pos": "3450446",
        "pkt_size": "14177",
        "width": 726,
        "height": 384,
        "pix_fmt": "yuv420p",
        "sample_aspect_ratio": "1:1",
        "pict_type": "I",
        "coded_picture_number": 587,
        "display_picture_number": 0,
        "interlaced_frame": 0,
        "top_field_first": 0,
        "repeat_pict": 0,
        "chroma_location": "left"
    },
    {
        "media_type": "video",
        "stream_index": 0,
        "key_frame": 1,
        "pkt_pts": 312361,
        "pkt_pts_time": "20.336003",
        "pkt_dts": 312361,
        "pkt_dts_time": "20.336003",
        "best_effort_timestamp": 312361,
        "best_effort_timestamp_time": "20.336003",
        "pkt_duration": 512,
        "pkt_duration_time": "0.033333",
        "pkt_pos": "3596134",
        "pkt_size": "17858",
        "width": 726,
        "height": 384,
        "pix_fmt": "yuv420p",
        "sample_aspect_ratio": "1:1",
        "pict_type": "I",
        "coded_picture_number": 610,
        "display_picture_number": 0,
        "interlaced_frame": 0,
        "top_field_first": 0,
        "repeat_pict": 0,
        "chroma_location": "left",
        "side_data_list": [
            {
                "side_data_type": "H.26[45] User Data Unregistered SEI message"
            }
        ]
    },
    {
        "media_type": "video",
        "stream_index": 0,
        "key_frame": 1,
        "pkt_pts": 373801,
        "pkt_pts_time": "24.336003",
        "pkt_dts": 373801,
        "pkt_dts_time": "24.336003",
        "best_effort_timestamp": 373801,
        "best_effort_timestamp_time": "24.336003",
        "pkt_duration": 512,
        "pkt_duration_time": "0.033333",
        "pkt_pos": "4293852",
        "pkt_size": "16990",
        "width": 726,
        "height": 384,
        "pix_fmt": "yuv420p",
        "sample_aspect_ratio": "1:1",
        "pict_type": "I",
        "coded_picture_number": 730,
        "display_picture_number": 0,
        "interlaced_frame": 0,
        "top_field_first": 0,
        "repeat_pict": 0,
        "chroma_location": "left"
    },
    {
        "media_type": "video",
        "stream_index": 0,
        "key_frame": 1,
        "pkt_pts": 392233,
        "pkt_pts_time": "25.536003",
        "pkt_dts": 392233,
        "pkt_dts_time": "25.536003",
        "best_effort_timestamp": 392233,
        "best_effort_timestamp_time": "25.536003",
        "pkt_duration": 512,
        "pkt_duration_time": "0.033333",
        "pkt_pos": "4480100",
        "pkt_size": "18002",
        "width": 726,
        "height": 384,
        "pix_fmt": "yuv420p",
        "sample_aspect_ratio": "1:1",
        "pict_type": "I",
        "coded_picture_number": 766,
        "display_picture_number": 0,
        "interlaced_frame": 0,
        "top_field_first": 0,
        "repeat_pict": 0,
        "chroma_location": "left",
        "side_data_list": [
            {
                "side_data_type": "H.26[45] User Data Unregistered SEI message"
            }
        ]
    },
    {
        "media_type": "video",
        "stream_index": 0,
        "key_frame": 1,
        "pkt_pts": 414766,
        "pkt_pts_time": "27.002995",
        "pkt_dts": 414766,
        "pkt_dts_time": "27.002995",
        "best_effort_timestamp": 414766,
        "best_effort_timestamp_time": "27.002995",
        "pkt_duration": 512,
        "pkt_duration_time": "0.033333",
        "pkt_pos": "4778260",
        "pkt_size": "21000",
        "width": 726,
        "height": 384,
        "pix_fmt": "yuv420p",
        "sample_aspect_ratio": "1:1",
        "pict_type": "I",
        "coded_picture_number": 810,
        "display_picture_number": 0,
        "interlaced_frame": 0,
        "top_field_first": 0,
        "repeat_pict": 0,
        "chroma_location": "left",
        "side_data_list": [
            {
                "side_data_type": "H.26[45] User Data Unregistered SEI message"
            }
        ]
    },
    {
        "media_type": "video",
        "stream_index": 0,
        "key_frame": 1,
        "pkt_pts": 476206,
        "pkt_pts_time": "31.002995",
        "pkt_dts": 476206,
        "pkt_dts_time": "31.002995",
        "best_effort_timestamp": 476206,
        "best_effort_timestamp_time": "31.002995",
        "pkt_duration": 512,
        "pkt_duration_time": "0.033333",
        "pkt_pos": "5408016",
        "pkt_size": "19204",
        "width": 726,
        "height": 384,
        "pix_fmt": "yuv420p",
        "sample_aspect_ratio": "1:1",
        "pict_type": "I",
        "coded_picture_number": 930,
        "display_picture_number": 0,
        "interlaced_frame": 0,
        "top_field_first": 0,
        "repeat_pict": 0,
        "chroma_location": "left"
    },
    {
        "media_type": "video",
        "stream_index": 0,
        "key_frame": 1,
        "pkt_pts": 532024,
        "pkt_pts_time": "34.636979",
        "pkt_dts": 532024,
        "pkt_dts_time": "34.636979",
        "best_effort_timestamp": 532024,
        "best_effort_timestamp_time": "34.636979",
        "pkt_duration": 512,
        "pkt_duration_time": "0.033333",
        "pkt_pos": "5858461",
        "pkt_size": "18062",
        "width": 726,
        "height": 384,
        "pix_fmt": "yuv420p",
        "sample_aspect_ratio": "1:1",
        "pict_type": "I",
        "coded_picture_number": 1039,
        "display_picture_number": 0,
        "interlaced_frame": 0,
        "top_field_first": 0,
        "repeat_pict": 0,
        "chroma_location": "left",
        "side_data_list": [
            {
                "side_data_type": "H.26[45] User Data Unregistered SEI message"
            }
        ]
    },
    {
        "media_type": "video",
        "stream_index": 0,
        "key_frame": 1,
        "pkt_pts": 553016,
        "pkt_pts_time": "36.003646",
        "pkt_dts": 553016,
        "pkt_dts_time": "36.003646",
        "best_effort_timestamp": 553016,
        "best_effort_timestamp_time": "36.003646",
        "pkt_duration": 512,
        "pkt_duration_time": "0.033333",
        "pkt_pos": "5978706",
        "pkt_size": "44659",
        "width": 726,
        "height": 384,
        "pix_fmt": "yuv420p",
        "sample_aspect_ratio": "1:1",
        "pict_type": "I",
        "coded_picture_number": 1080,
        "display_picture_number": 0,
        "interlaced_frame": 0,
        "top_field_first": 0,
        "repeat_pict": 0,
        "chroma_location": "left"
    },
    {
        "media_type": "video",
        "stream_index": 0,
        "key_frame": 1,
        "pkt_pts": 614456,
        "pkt_pts_time": "40.003646",
        "pkt_dts": 614456,
        "pkt_dts_time": "40.003646",
        "best_effort_timestamp": 614456,
        "best_effort_timestamp_time": "40.003646",
        "pkt_duration": 512,
        "pkt_duration_time": "0.033333",
        "pkt_pos": "6591150",
        "pkt_size": "27190",
        "width": 726,
        "height": 384,
        "pix_fmt": "yuv420p",
        "sample_aspect_ratio": "1:1",
        "pict_type": "I",
        "coded_picture_number": 1200,
        "display_picture_number": 0,
        "interlaced_frame": 0,
        "top_field_first": 0,
        "repeat_pict": 0,
        "chroma_location": "left"
    },
    {
        "media_type": "video",
        "stream_index": 0,
        "key_frame": 1,
        "pkt_pts": 675896,
        "pkt_pts_time": "44.003646",
        "pkt_dts": 675896,
        "pkt_dts_time": "44.003646",
        "best_effort_timestamp": 675896,
        "best_effort_timestamp_time": "44.003646",
        "pkt_duration": 512,
        "pkt_duration_time": "0.033333",
        "pkt_pos": "7306668",
        "pkt_size": "24680",
        "width": 726,
        "height": 384,
        "pix_fmt": "yuv420p",
        "sample_aspect_ratio": "1:1",
        "pict_type": "I",
        "coded_picture_number": 1320,
        "display_picture_number": 0,
        "interlaced_frame": 0,
        "top_field_first": 0,
        "repeat_pict": 0,
        "chroma_location": "left"
    },
    {
        "media_type": "video",
        "stream_index": 0,
        "key_frame": 1,
        "pkt_pts": 737336,
        "pkt_pts_time": "48.003646",
        "pkt_dts": 737336,
        "pkt_dts_time": "48.003646",
        "best_effort_timestamp": 737336,
        "best_effort_timestamp_time": "48.003646",
        "pkt_duration": 512,
        "pkt_duration_time": "0.033333",
        "pkt_pos": "7851532",
        "pkt_size": "30258",
        "width": 726,
        "height": 384,
        "pix_fmt": "yuv420p",
        "sample_aspect_ratio": "1:1",
        "pict_type": "I",
        "coded_picture_number": 1440,
        "display_picture_number": 0,
        "interlaced_frame": 0,
        "top_field_first": 0,
        "repeat_pict": 0,
        "chroma_location": "left"
    },
    {
        "media_type": "video",
        "stream_index": 0,
        "key_frame": 1,
        "pkt_pts": 798776,
        "pkt_pts_time": "52.003646",
        "pkt_dts": 798776,
        "pkt_dts_time": "52.003646",
        "best_effort_timestamp": 798776,
        "best_effort_timestamp_time": "52.003646",
        "pkt_duration": 512,
        "pkt_duration_time": "0.033333",
        "pkt_pos": "8167652",
        "pkt_size": "26796",
        "width": 726,
        "height": 384,
        "pix_fmt": "yuv420p",
        "sample_aspect_ratio": "1:1",
        "pict_type": "I",
        "coded_picture_number": 1560,
        "display_picture_number": 0,
        "interlaced_frame": 0,
        "top_field_first": 0,
        "repeat_pict": 0,
        "chroma_location": "left"
    }
]